<svg version="1.0" xmlns="http://www.w3.org/2000/svg"
 width="96.000000pt" height="96.000000pt" viewBox="0 0 96.000000 96.000000"
 preserveAspectRatio="xMidYMid meet">

<g transform="translate(0.000000,96.000000) scale(0.100000,-0.100000)"
fill="#9021FF" stroke="none">
<path d="M184 745 c-56 -18 -96 -39 -118 -64 -16 -18 -17 -25 -8 -46 15 -32
39 -32 102 0 54 27 135 34 173 13 25 -13 67 -58 67 -73 0 -5 3 -20 6 -32 6
-23 5 -23 -102 -23 -152 -1 -228 -19 -271 -63 -30 -32 -33 -41 -33 -96 0 -34
4 -61 10 -61 6 0 10 -6 10 -14 0 -19 63 -73 107 -91 55 -23 173 -20 229 7 l47
21 19 -26 c25 -34 60 -35 86 -2 l20 25 47 -20 c63 -27 186 -28 248 -1 56 24
117 77 117 102 0 10 -11 26 -25 35 -28 18 -30 18 -110 -31 -47 -29 -148 -34
-193 -11 -44 23 -99 97 -87 116 4 6 89 10 203 10 148 1 201 4 215 14 47 36 -4
191 -86 261 -41 35 -121 65 -176 65 -39 0 -116 -29 -165 -63 l-39 -26 -33 25
c-75 58 -174 76 -260 49z m575 -105 c37 -21 81 -78 81 -105 0 -13 -24 -15
-160 -15 -88 0 -160 2 -160 5 0 28 61 99 105 123 32 18 94 14 134 -8z m-356
-260 c-3 -71 -122 -133 -209 -109 -42 12 -94 61 -94 90 0 10 10 28 22 39 21
19 33 20 153 18 l130 -3 -2 -35z"/>
</g>
</svg>