<svg xmlns="http://www.w3.org/2000/svg" width="249" height="221" viewBox="0 0 249 221">
<path d="M 87 0 L 86 1 L 85 1 L 84 2 L 83 2 L 28 57 L 26 57 L 25 58 L 24 58 L 23 57 L 22 58 L 12 58 L 11 59 L 9 59 L 8 60 L 7 60 L 6 61 L 5 61 L 0 66 L 0 108 L 3 111 L 4 111 L 7 114 L 30 114 L 31 113 L 32 113 L 33 112 L 34 112 L 35 111 L 36 111 L 45 102 L 45 101 L 46 100 L 46 99 L 47 98 L 47 97 L 48 96 L 48 78 L 47 77 L 47 76 L 46 75 L 46 71 L 75 42 L 76 42 L 79 39 L 79 38 L 80 37 L 81 37 L 96 22 L 172 22 L 173 23 L 175 23 L 176 24 L 177 24 L 178 25 L 179 25 L 180 26 L 181 26 L 183 28 L 184 28 L 188 32 L 188 33 L 190 35 L 190 36 L 191 37 L 191 38 L 192 39 L 192 41 L 193 42 L 193 176 L 192 177 L 192 179 L 191 180 L 191 181 L 190 182 L 190 183 L 189 184 L 189 185 L 187 187 L 187 188 L 184 191 L 183 191 L 180 194 L 179 194 L 178 195 L 176 195 L 175 196 L 173 196 L 172 197 L 167 197 L 166 198 L 43 198 L 42 197 L 41 197 L 39 195 L 38 195 L 37 194 L 37 193 L 35 191 L 35 166 L 36 165 L 36 164 L 41 159 L 42 159 L 43 158 L 45 158 L 46 157 L 85 157 L 139 103 L 143 103 L 144 102 L 154 102 L 155 101 L 156 101 L 157 100 L 158 100 L 159 99 L 160 99 L 161 98 L 162 98 L 166 94 L 166 93 L 168 91 L 168 90 L 169 89 L 169 88 L 170 87 L 170 85 L 171 84 L 171 72 L 170 71 L 170 69 L 168 67 L 168 66 L 167 65 L 167 64 L 162 59 L 161 59 L 160 58 L 159 58 L 158 57 L 157 57 L 156 56 L 155 56 L 154 55 L 150 55 L 149 54 L 145 54 L 144 55 L 140 55 L 139 56 L 138 56 L 137 57 L 136 57 L 135 58 L 134 58 L 132 60 L 131 60 L 128 63 L 128 64 L 126 66 L 126 67 L 125 68 L 125 69 L 124 70 L 124 71 L 123 72 L 123 74 L 122 75 L 122 83 L 123 84 L 123 86 L 124 87 L 124 89 L 76 137 L 41 137 L 40 138 L 38 138 L 37 139 L 35 139 L 34 140 L 32 140 L 30 142 L 29 142 L 27 144 L 26 144 L 23 147 L 23 148 L 21 150 L 21 151 L 19 153 L 19 154 L 18 155 L 18 156 L 17 157 L 17 159 L 16 160 L 16 163 L 15 164 L 15 192 L 16 193 L 16 197 L 17 198 L 17 200 L 18 201 L 18 202 L 19 203 L 19 204 L 20 205 L 20 206 L 28 214 L 29 214 L 31 216 L 32 216 L 33 217 L 35 217 L 36 218 L 38 218 L 39 219 L 43 219 L 44 220 L 168 220 L 169 219 L 177 219 L 178 218 L 182 218 L 183 217 L 184 217 L 185 216 L 187 216 L 188 215 L 189 215 L 190 214 L 191 214 L 192 213 L 193 213 L 195 211 L 196 211 L 199 208 L 200 208 L 204 204 L 204 203 L 208 199 L 208 198 L 209 197 L 209 196 L 210 195 L 210 194 L 211 193 L 211 192 L 212 191 L 212 189 L 213 188 L 213 185 L 214 184 L 214 35 L 213 34 L 213 31 L 212 30 L 212 28 L 211 27 L 211 26 L 210 25 L 210 24 L 209 23 L 209 22 L 208 21 L 208 20 L 205 17 L 205 16 L 200 11 L 199 11 L 196 8 L 195 8 L 193 6 L 192 6 L 191 5 L 190 5 L 189 4 L 188 4 L 187 3 L 185 3 L 184 2 L 182 2 L 181 1 L 178 1 L 177 0 Z" fill="white"/>
</svg>